<svg xmlns="http://www.w3.org/2000/svg" fill="none" viewBox="0 0 171 156"><path fill="#F45F5F" fill-rule="evenodd" d="M87.118 68.858c39.706 8.44 80.303-24.277 71.894 15.281-8.408 39.559-47.412 64.785-87.118 56.345-39.706-8.44-65.078-47.35-56.67-86.907 8.409-39.559 32.189 6.841 71.895 15.281z" clip-rule="evenodd"/><path fill="#FCFCFC" d="M51.233 93.915c.53-2.493.036-4.671-1.513-6.515-1.417-1.71-3.382-2.846-5.925-3.386-3.383-.72-7.305-.277-11.735 1.307l1.318 3.682c3.718-1.363 6.935-1.742 9.606-1.174 1.424.302 2.549.887 3.406 1.734.987.98 1.32 2.168 1.033 3.515-.519 2.442-2.586 4.288-6.201 5.54l1.317 3.682c2.156-.764 4-1.808 5.474-3.116 1.731-1.519 2.798-3.286 3.22-5.27zm27.307.833-4.659-4.844-2.806 2.7 4.658 4.844 2.807-2.7zm-8.802 4.27c.508-2.39.263-4.49-.73-6.322-1.023-1.813-2.696-3.072-5.018-3.778l.784-3.688-3.815-.81-.832 3.916a20.572 20.572 0 0 0-3.374.24l.535 3.861a18.151 18.151 0 0 1 2.006-.184l-2.065 9.714 3.815.811 2.13-10.02c2.447.866 3.364 2.682 2.775 5.454-.552 2.594-2.204 5.114-4.93 7.564l2.595 2.918c3.346-2.984 5.389-6.218 6.124-9.676zm30.374.289.81-3.815-4.145-.88.102-3.355-3.885-.108-.083 2.64-5.239-1.113-.81 3.815 5.925 1.26-.1 3.593c-1.562.226-2.91.817-4.05 1.797a6.694 6.694 0 0 0-2.268 3.797c-.281 1.323-.14 2.656.426 3.998.51 1.225 1.313 2.326 2.413 3.278l2.61-2.901c-1.322-1.158-1.863-2.363-1.598-3.609.275-1.297 1.111-2.103 2.496-2.367.746-.134 1.996-.134 3.763.056l.2-6.816 3.433.73zm24.917 20.208-.975-3.795c-1.381.371-2.621.453-3.715.22-2.39-.508-3.969-2.332-4.737-5.473l-3.11.748 8.592-13.032-3.264-2.156-12.415 18.892 3.264 2.155 3.309-5.064c.588 1.985 1.486 3.638 2.694 4.958 1.339 1.454 2.949 2.381 4.857 2.787 1.678.357 3.505.266 5.5-.24z"/><path fill="#F45F5F" fill-rule="evenodd" d="M42.854 29.788a7.36 7.36 0 1 0 3.06-14.398 7.36 7.36 0 0 0-3.06 14.398zM63.099 22.804a7.36 7.36 0 1 0 3.06-14.398 7.36 7.36 0 0 0-3.06 14.398z" clip-rule="evenodd"/></svg>