<svg xmlns="http://www.w3.org/2000/svg" fill="none" viewBox="0 0 82 77"><path fill="#F45F5F" fill-rule="evenodd" d="M39.275 34.691C55.945 27.956 62.75 5.886 69.46 22.495c6.71 16.61-1.365 35.534-18.036 42.27C34.754 71.5 15.8 63.496 9.09 46.887c-6.711-16.609 13.514-5.46 30.186-12.196z" clip-rule="evenodd"/><path fill="#FCFCFC" d="M31.99 52.882c-.404-1-1.092-1.647-2.072-1.927-.902-.265-1.86-.198-2.88.214-1.356.548-2.627 1.631-3.806 3.235l1.333.98c.982-1.358 2.02-2.252 3.092-2.685.57-.23 1.104-.292 1.605-.198.578.11.976.448 1.194.989.396.979.107 2.116-.864 3.41l1.333.98c.575-.778.975-1.58 1.182-2.388.248-.942.204-1.814-.117-2.61zm9.775-6.168-2.78-.597-.346 1.61 2.78.598.346-1.611zm-2.077 3.58c-.387-.959-.97-1.637-1.752-2.045-.787-.394-1.672-.44-2.654-.138l-.597-1.479-1.53.618.635 1.571c-.386.25-.754.542-1.127.882l1.101 1.228c.218-.195.43-.375.66-.54l1.574 3.897 1.53-.618-1.623-4.019c1.063-.275 1.814.145 2.263 1.257.42 1.04.437 2.315.06 3.82l1.601.408c.468-1.838.42-3.455-.141-4.842zM50.41 43.21l-.618-1.53-1.663.671-.758-1.2-1.388.88.596.947-2.101.849.618 1.53 2.377-.96.815 1.283a3.28 3.28 0 0 0-.995 1.589 2.83 2.83 0 0 0 .102 1.869c.214.53.58.964 1.095 1.301.47.309 1.011.505 1.622.579l.23-1.635c-.738-.094-1.213-.388-1.415-.888-.21-.52-.108-1 .316-1.42.23-.224.668-.52 1.332-.872l-1.542-2.437 1.377-.556zm13.52 1.193-1.24-1.101c-.396.457-.812.779-1.25.956-.959.387-1.944.121-2.957-.799l-.913.998-.07-6.603-1.655.016.115 9.563 1.654-.016-.037-2.56c.676.558 1.382.925 2.118 1.102a3.802 3.802 0 0 0 2.363-.171c.673-.272 1.292-.736 1.872-1.385z"/><path fill="#F45F5F" fill-rule="evenodd" d="M13.342 31.308a3.26 3.26 0 1 0-2.442-6.046 3.26 3.26 0 0 0 2.442 6.046zM19.047 23.729a3.26 3.26 0 1 0-2.443-6.045 3.26 3.26 0 0 0 2.443 6.045z" clip-rule="evenodd"/></svg>