<svg xmlns="http://www.w3.org/2000/svg" fill="none" viewBox="0 0 186 174"><path fill="#F45F5F" fill-rule="evenodd" d="M89.544 78.538c37.637-15.206 52.998-65.03 68.148-27.534 15.149 37.497-3.08 80.222-40.717 95.428-37.637 15.207-80.43-2.863-95.58-40.36-15.15-37.497 30.512-12.328 68.149-27.534z" clip-rule="evenodd"/><path fill="#FCFCFC" d="M73.805 119.379c-.955-2.363-2.582-3.893-4.897-4.556-2.132-.625-4.395-.467-6.806.507-3.206 1.295-6.21 3.855-8.997 7.645l3.15 2.316c2.322-3.209 4.777-5.323 7.308-6.345 1.35-.546 2.61-.69 3.793-.467 1.367.261 2.307 1.059 2.823 2.336.935 2.315.254 5.002-2.043 8.061l3.15 2.316c1.36-1.839 2.305-3.735 2.796-5.644.586-2.228.482-4.289-.277-6.169zM96.91 104.8l-6.571-1.411-.818 3.807 6.572 1.411.817-3.807zM92 113.261c-.916-2.266-2.292-3.869-4.14-4.833-1.862-.93-3.953-1.039-6.273-.326l-1.412-3.495-3.616 1.461 1.5 3.712a20.599 20.599 0 0 0-2.663 2.085L78 114.768a18.052 18.052 0 0 1 1.56-1.275l3.72 9.208 3.616-1.461-3.837-9.498c2.513-.651 4.288.343 5.35 2.97.993 2.459 1.033 5.472.142 9.028l3.784.967c1.105-4.344.99-8.167-.334-11.446zm25.343-16.745-1.461-3.616-3.93 1.588-1.791-2.838-3.281 2.083 1.408 2.235-4.966 2.007 1.461 3.616 5.617-2.27 1.927 3.035c-1.169 1.062-1.957 2.305-2.353 3.755a6.693 6.693 0 0 0 .243 4.417c.506 1.254 1.369 2.279 2.588 3.076 1.109.73 2.39 1.194 3.834 1.368l.542-3.865c-1.744-.22-2.867-.917-3.344-2.098-.497-1.229-.254-2.365.747-3.358.543-.528 1.579-1.227 3.15-2.058l-3.646-5.762 3.255-1.315zm31.957 2.82-2.93-2.602c-.938 1.08-1.92 1.842-2.957 2.26-2.266.916-4.595.287-6.988-1.887l-2.159 2.359-.165-15.61-3.911.038.271 22.605 3.911-.038-.089-6.049c1.598 1.317 3.267 2.185 5.007 2.604 1.923.457 3.776.325 5.584-.406 1.591-.642 3.055-1.739 4.426-3.274z"/><path fill="#F45F5F" fill-rule="evenodd" d="M30.999 70.9a7.36 7.36 0 1 0-5.514-13.649A7.36 7.36 0 0 0 30.999 70.9zM43.877 53.79a7.36 7.36 0 1 0-5.514-13.649 7.36 7.36 0 0 0 5.514 13.648z" clip-rule="evenodd"/></svg>